<svg xmlns="http://www.w3.org/2000/svg" viewBox="0 0 900 600">
  <rect width="900" height="600" fill="#de2910"/>
  <g fill="#ffde00">
    <!-- Large star (main star) -->
    <polygon points="180,120 200,180 260,180 210,220 230,280 180,240 130,280 150,220 100,180 160,180" fill="#ffde00"/>
    
    <!-- Four small stars -->
    <polygon points="300,100 310,120 330,120 315,135 325,155 300,145 275,155 285,135 270,120 290,120" fill="#ffde00"/>
    <polygon points="360,160 370,180 390,180 375,195 385,215 360,205 335,215 345,195 330,180 350,180" fill="#ffde00"/>
    <polygon points="360,240 370,260 390,260 375,275 385,295 360,285 335,295 345,275 330,260 350,260" fill="#ffde00"/>
    <polygon points="300,300 310,320 330,320 315,335 325,355 300,345 275,355 285,335 270,320 290,320" fill="#ffde00"/>
  </g>
</svg>
