<svg xmlns="http://www.w3.org/2000/svg" viewBox="0 0 900 600">
  <rect width="900" height="600" fill="#de2910"/>
  <g fill="#ffde00">
    <polygon points="180,120 195,150 225,150 200,170 210,200 180,185 150,200 160,170 135,150 165,150" fill="#ffde00"/>
    <polygon points="300,100 310,120 330,120 315,135 325,155 300,145 275,155 285,135 270,120 290,120" fill="#ffde00"/>
    <polygon points="420,80 430,100 450,100 435,115 445,135 420,125 395,135 405,115 390,100 410,100" fill="#ffde00"/>
    <polygon points="540,100 550,120 570,120 555,135 565,155 540,145 515,155 525,135 510,120 530,120" fill="#ffde00"/>
    <polygon points="660,120 670,140 690,140 675,155 685,175 660,165 635,175 645,155 630,140 650,140" fill="#ffde00"/>
    <polygon points="780,140 790,160 810,160 795,175 805,195 780,185 755,195 765,175 750,160 770,160" fill="#ffde00"/>
    <polygon points="240,200 250,220 270,220 255,235 265,255 240,245 215,255 225,235 210,220 230,220" fill="#ffde00"/>
    <polygon points="360,180 370,200 390,200 375,215 385,235 360,225 335,235 345,215 330,200 350,200" fill="#ffde00"/>
    <polygon points="480,160 490,180 510,180 495,195 505,215 480,205 455,215 465,195 450,180 470,180" fill="#ffde00"/>
    <polygon points="600,180 610,200 630,200 615,215 625,235 600,225 575,235 585,215 570,200 590,200" fill="#ffde00"/>
    <polygon points="720,200 730,220 750,220 735,235 745,255 720,245 695,255 705,235 690,220 710,220" fill="#ffde00"/>
    <polygon points="300,260 310,280 330,280 315,295 325,315 300,305 275,315 285,295 270,280 290,280" fill="#ffde00"/>
    <polygon points="420,240 430,260 450,260 435,275 445,295 420,285 395,295 405,275 390,260 410,260" fill="#ffde00"/>
    <polygon points="540,260 550,280 570,280 555,295 565,315 540,305 515,315 525,295 510,280 530,280" fill="#ffde00"/>
    <polygon points="660,240 670,260 690,260 675,275 685,295 660,285 635,295 645,275 630,260 650,260" fill="#ffde00"/>
    <polygon points="180,320 190,340 210,340 195,355 205,375 180,365 155,375 165,355 150,340 170,340" fill="#ffde00"/>
    <polygon points="300,300 310,320 330,320 315,335 325,355 300,345 275,355 285,335 270,320 290,320" fill="#ffde00"/>
    <polygon points="420,320 430,340 450,340 435,355 445,375 420,365 395,375 405,355 390,340 410,340" fill="#ffde00"/>
    <polygon points="540,300 550,320 570,320 555,335 565,355 540,345 515,355 525,335 510,320 530,320" fill="#ffde00"/>
    <polygon points="660,320 670,340 690,340 675,355 685,375 660,365 635,375 645,355 630,340 650,340" fill="#ffde00"/>
    <polygon points="780,300 790,320 810,320 795,335 805,355 780,345 755,355 765,335 750,320 770,320" fill="#ffde00"/>
    <polygon points="240,380 250,400 270,400 255,415 265,435 240,425 215,435 225,415 210,400 230,400" fill="#ffde00"/>
    <polygon points="360,360 370,380 390,380 375,395 385,415 360,405 335,415 345,395 330,380 350,380" fill="#ffde00"/>
    <polygon points="480,380 490,400 510,400 495,415 505,435 480,425 455,435 465,415 450,400 470,400" fill="#ffde00"/>
    <polygon points="600,360 610,380 630,380 615,395 625,415 600,405 575,415 585,395 570,380 590,380" fill="#ffde00"/>
    <polygon points="720,380 730,400 750,400 735,415 745,435 720,425 695,435 705,415 690,400 710,400" fill="#ffde00"/>
  </g>
</svg>
