<svg xmlns="http://www.w3.org/2000/svg" viewBox="0 0 950 500">
  <rect width="950" height="500" fill="#b22234"/>
  <rect width="950" height="38.46" fill="#ffffff"/>
  <rect width="950" height="38.46" y="76.92" fill="#ffffff"/>
  <rect width="950" height="38.46" y="153.85" fill="#ffffff"/>
  <rect width="950" height="38.46" y="230.77" fill="#ffffff"/>
  <rect width="950" height="38.46" y="307.69" fill="#ffffff"/>
  <rect width="950" height="38.46" y="384.62" fill="#ffffff"/>
  <rect width="380" height="269.23" fill="#3c3b6e"/>
  <g fill="#ffffff">
    <g id="stars">
      <g id="stars-row-1">
        <polygon points="25,25 30,40 45,40 33,50 38,65 25,55 12,65 17,50 5,40 20,40" fill="#ffffff"/>
        <polygon points="75,25 80,40 95,40 83,50 88,65 75,55 62,65 67,50 55,40 70,40" fill="#ffffff"/>
        <polygon points="125,25 130,40 145,40 133,50 138,65 125,55 112,65 117,50 105,40 120,40" fill="#ffffff"/>
        <polygon points="175,25 180,40 195,40 183,50 188,65 175,55 162,65 167,50 155,40 170,40" fill="#ffffff"/>
        <polygon points="225,25 230,40 245,40 233,50 238,65 225,55 212,65 217,50 205,40 220,40" fill="#ffffff"/>
        <polygon points="275,25 280,40 295,40 283,50 288,65 275,55 262,65 267,50 255,40 270,40" fill="#ffffff"/>
        <polygon points="325,25 330,40 345,40 333,50 338,65 325,55 312,65 317,50 305,40 320,40" fill="#ffffff"/>
        <polygon points="375,25 380,40 395,40 383,50 388,65 375,55 362,65 367,50 355,40 370,40" fill="#ffffff"/>
      </g>
      <g id="stars-row-2">
        <polygon points="50,50 55,65 70,65 58,75 63,90 50,80 37,90 42,75 30,65 45,65" fill="#ffffff"/>
        <polygon points="100,50 105,65 120,65 108,75 113,90 100,80 87,90 92,75 80,65 95,65" fill="#ffffff"/>
        <polygon points="150,50 155,65 170,65 158,75 163,90 150,80 137,90 142,75 130,65 145,65" fill="#ffffff"/>
        <polygon points="200,50 205,65 220,65 208,75 213,90 200,80 187,90 192,75 180,65 195,65" fill="#ffffff"/>
        <polygon points="250,50 255,65 270,65 258,75 263,90 250,80 237,90 242,75 230,65 245,65" fill="#ffffff"/>
        <polygon points="300,50 305,65 320,65 308,75 313,90 300,80 287,90 292,75 280,65 295,65" fill="#ffffff"/>
        <polygon points="350,50 355,65 370,65 358,75 363,90 350,80 337,90 342,75 330,65 345,65" fill="#ffffff"/>
      </g>
    </g>
  </g>
</svg>
