<svg xmlns="http://www.w3.org/2000/svg" viewBox="0 0 950 500">
  <!-- Red stripes -->
  <rect width="950" height="500" fill="#b22234"/>
  <rect width="950" height="38.46" fill="#ffffff"/>
  <rect width="950" height="38.46" y="76.92" fill="#ffffff"/>
  <rect width="950" height="38.46" y="153.85" fill="#ffffff"/>
  <rect width="950" height="38.46" y="230.77" fill="#ffffff"/>
  <rect width="950" height="38.46" y="307.69" fill="#ffffff"/>
  <rect width="950" height="38.46" y="384.62" fill="#ffffff"/>
  
  <!-- Blue canton -->
  <rect width="380" height="269.23" fill="#3c3b6e"/>
  
  <!-- Stars -->
  <g fill="#ffffff">
    <!-- Row 1: 6 stars -->
    <polygon points="30,30 35,45 50,45 38,55 43,70 30,60 17,70 22,55 10,45 25,45"/>
    <polygon points="80,30 85,45 100,45 88,55 93,70 80,60 67,70 72,55 60,45 75,45"/>
    <polygon points="130,30 135,45 150,45 138,55 143,70 130,60 117,70 122,55 110,45 125,45"/>
    <polygon points="180,30 185,45 200,45 188,55 193,70 180,60 167,70 172,55 160,45 175,45"/>
    <polygon points="230,30 235,45 250,45 238,55 243,70 230,60 217,70 222,55 210,45 225,45"/>
    <polygon points="280,30 285,45 300,45 288,55 293,70 280,60 267,70 272,55 260,45 275,45"/>
    
    <!-- Row 2: 5 stars -->
    <polygon points="55,60 60,75 75,75 63,85 68,100 55,90 42,100 47,85 35,75 50,75"/>
    <polygon points="105,60 110,75 125,75 113,85 118,100 105,90 92,100 97,85 85,75 100,75"/>
    <polygon points="155,60 160,75 175,75 163,85 168,100 155,90 142,100 147,85 135,75 150,75"/>
    <polygon points="205,60 210,75 225,75 213,85 218,100 205,90 192,100 197,85 185,75 200,75"/>
    <polygon points="255,60 260,75 275,75 263,85 268,100 255,90 242,100 247,85 235,75 250,75"/>
    
    <!-- Row 3: 6 stars -->
    <polygon points="30,90 35,105 50,105 38,115 43,130 30,120 17,130 22,115 10,105 25,105"/>
    <polygon points="80,90 85,105 100,105 88,115 93,130 80,120 67,130 72,115 60,105 75,105"/>
    <polygon points="130,90 135,105 150,105 138,115 143,130 130,120 117,130 122,115 110,105 125,105"/>
    <polygon points="180,90 185,105 200,105 188,115 193,130 180,120 167,130 172,115 160,105 175,105"/>
    <polygon points="230,90 235,105 250,105 238,115 243,130 230,120 217,130 222,115 210,105 225,105"/>
    <polygon points="280,90 285,105 300,105 288,115 293,130 280,120 267,130 272,115 260,105 275,105"/>
    
    <!-- Row 4: 5 stars -->
    <polygon points="55,120 60,135 75,135 63,145 68,160 55,150 42,160 47,145 35,135 50,135"/>
    <polygon points="105,120 110,135 125,135 113,145 118,160 105,150 92,160 97,145 85,135 100,135"/>
    <polygon points="155,120 160,135 175,135 163,145 168,160 155,150 142,160 147,145 135,135 150,135"/>
    <polygon points="205,120 210,135 225,135 213,145 218,160 205,150 192,160 197,145 185,135 200,135"/>
    <polygon points="255,120 260,135 275,135 263,145 268,160 255,150 242,160 247,145 235,135 250,135"/>
    
    <!-- Row 5: 6 stars -->
    <polygon points="30,150 35,165 50,165 38,175 43,190 30,180 17,190 22,175 10,165 25,165"/>
    <polygon points="80,150 85,165 100,165 88,175 93,190 80,180 67,190 72,175 60,165 75,165"/>
    <polygon points="130,150 135,165 150,165 138,175 143,190 130,180 117,190 122,175 110,165 125,165"/>
    <polygon points="180,150 185,165 200,165 188,175 193,190 180,180 167,190 172,175 160,165 175,165"/>
    <polygon points="230,150 235,165 250,165 238,175 243,190 230,180 217,190 222,175 210,165 225,165"/>
    <polygon points="280,150 285,165 300,165 288,175 293,190 280,180 267,190 272,175 260,165 275,165"/>
    
    <!-- Row 6: 5 stars -->
    <polygon points="55,180 60,195 75,195 63,205 68,220 55,210 42,220 47,205 35,195 50,195"/>
    <polygon points="105,180 110,195 125,195 113,205 118,220 105,210 92,220 97,205 85,195 100,195"/>
    <polygon points="155,180 160,195 175,195 163,205 168,220 155,210 142,220 147,205 135,195 150,195"/>
    <polygon points="205,180 210,195 225,195 213,205 218,220 205,210 192,220 197,205 185,195 200,195"/>
    <polygon points="255,180 260,195 275,195 263,205 268,220 255,210 242,220 247,205 235,195 250,195"/>
  </g>
</svg>
